<svg xmlns="http://www.w3.org/2000/svg" width="64" height="64">
 <path d="M31.297 35.324l5.625-20.872L57.66 20l-5.563 20.61c-8.892 32.94-50.37 21.774-41.602-10.814.062-.23 20.802 5.53 20.802 5.53z" fill="none" stroke="#9d6329" stroke-linejoin="round" stroke-miterlimit="3.8636899" stroke-width="3.746"/>
 <path d="M31.297 35.324l5.625-20.872L57.66 20l-5.563 20.61c-8.892 32.94-50.37 21.774-41.602-10.814.062-.23 20.802 5.53 20.802 5.53" fill="#f89c0e"/>
 <path d="M12.44 3.01l20.814 5.573-5.564 20.652-20.814-5.54L12.44 3.01z" fill="none" stroke="#86882b" stroke-linejoin="round" stroke-miterlimit="3.8636899" stroke-width="3.746"/>
 <path d="M12.44 3.01l20.814 5.573-5.564 20.652-20.814-5.54L12.44 3.01" fill="#d9e70c"/>
</svg>
