<svg xmlns="http://www.w3.org/2000/svg" width="64" height="64"><title>JClic Player</title><path d="M31.296 35.324l5.624-20.872 20.74 5.546-5.564 20.61c-8.89 32.94-50.37 21.774-41.6-10.814.06-.23 20.8 5.53 20.8 5.53z" fill="none" stroke="#9d6329" stroke-width="3.7457999999999996" stroke-linecap="round" stroke-linejoin="round" stroke-miterlimit="3.864"/><path d="M31.296 35.324l5.624-20.872 20.74 5.546-5.564 20.61c-8.89 32.94-50.37 21.774-41.6-10.814.06-.23 20.8 5.53 20.8 5.53" fill="#f89c0e"/><path d="M12.44 3.01l20.814 5.574-5.564 20.653-20.813-5.54L12.44 3.01z" fill="none" stroke="#86882b" stroke-width="3.7457999999999996" stroke-linecap="round" stroke-linejoin="round" stroke-miterlimit="3.864"/><path d="M12.44 3.01l20.814 5.574-5.564 20.653-20.813-5.54L12.44 3.01" fill="#d9e70c"/></svg>