<svg xmlns="http://www.w3.org/2000/svg" width="64" height="64"><title>JClic Player</title><path d="M22.334 28.21l4.44-16.482 16.376 4.38-4.393 16.273c-7.02 26.01-39.77 17.194-32.847-8.538.048-.18 16.424 4.367 16.424 4.367z" fill="none" stroke="#9d6329" stroke-width="2.9574" stroke-linecap="round" stroke-linejoin="round" stroke-miterlimit="3.864"/><path d="M22.334 28.21l4.44-16.482 16.376 4.38-4.393 16.273c-7.02 26.01-39.77 17.194-32.847-8.538.048-.18 16.424 4.367 16.424 4.367" fill="#f89c0e"/><path d="M7.446 2.695l16.434 4.4-4.393 16.307-16.434-4.374L7.446 2.695z" fill="none" stroke="#86882b" stroke-width="2.9574" stroke-linecap="round" stroke-linejoin="round" stroke-miterlimit="3.864"/><path d="M7.446 2.695l16.434 4.4-4.393 16.307-16.434-4.374L7.446 2.695" fill="#d9e70c"/><path fill="#e44d26" d="M30.37 27.96h30.562l-2.785 31.19-12.515 3.47-12.48-3.464"/><path fill="#f16529" d="M45.65 59.97l10.114-2.805 2.38-26.654H45.65"/><path fill="#ebebeb" d="M36.057 34.337l.09 1.027.942 10.543h8.56V42.08H40.59l-.35-3.917h5.413v-3.826h-.012M45.633 56.004L45.65 56v-3.982l-.016.004-4.26-1.15-.273-3.052h-3.84l.536 6.008"/><path fill="#fff" d="M45.638 56.002l7.843-2.174.06-.647.898-10.07.093-1.03H45.64v3.827h4.71l-.443 4.962-4.267 1.15M54.88 38.163l.076-.86.174-1.94.092-1.026h-9.584V38.164h9.23"/></svg>